<svg width="64" height="64" viewBox="0 0 64 64" fill="none" xmlns="http://www.w3.org/2000/svg">
<path fill-rule="evenodd" clip-rule="evenodd" d="M47.2381 4.57143C53.9707 4.57143 59.4286 10.0293 59.4286 16.7619V47.2381C59.4286 53.9707 53.9707 59.4286 47.2381 59.4286H16.7619C10.0293 59.4286 4.57143 53.9707 4.57143 47.2381V16.7619C4.57143 10.0293 10.0293 4.57143 16.7619 4.57143H47.2381V4.57143ZM47.2381 0H16.7619C7.50456 0 0 7.50456 0 16.7619V47.2381C0 56.4954 7.50456 64 16.7619 64H47.2381C56.4954 64 64 56.4954 64 47.2381V16.7619C64 7.50456 56.4954 0 47.2381 0Z" fill="#EDF2F4"/>
<path fill-rule="evenodd" clip-rule="evenodd" d="M32 18.2857C39.5742 18.2857 45.7143 24.4258 45.7143 32C45.7143 39.5742 39.5742 45.7143 32 45.7143C24.4258 45.7143 18.2857 39.5742 18.2857 32C18.2857 24.4258 24.4258 18.2857 32 18.2857V18.2857ZM32 13.7143C24.6041 13.7143 17.9365 18.1695 15.1062 25.0024C12.2759 31.8353 13.8404 39.7003 19.07 44.93C24.2997 50.1596 32.1647 51.7241 38.9976 48.8938C45.8305 46.0635 50.2857 39.3959 50.2857 32C50.2857 21.9011 42.0989 13.7143 32 13.7143V13.7143Z" fill="#EDF2F4"/>
<path fill-rule="evenodd" clip-rule="evenodd" d="M49.5238 16C51.207 16 52.5714 14.6355 52.5714 12.9524C52.5714 11.2692 51.207 9.90475 49.5238 9.90475C47.8407 9.90475 46.4762 11.2692 46.4762 12.9524C46.4762 14.6355 47.8407 16 49.5238 16Z" fill="#EDF2F4"/>
</svg>
