<svg width="64" height="64" viewBox="0 0 64 64" fill="none" xmlns="http://www.w3.org/2000/svg">
<path d="M43.3439 20.6561C40.4656 17.7778 36.4021 15.9153 32 15.9153C27.5979 15.9153 23.5344 17.6931 20.6561 20.6561C17.7778 23.5344 15.9153 27.5979 15.9153 32C15.9153 36.4021 17.7778 40.4656 20.6561 43.3439C23.5344 46.2222 27.5979 48.0847 32 48.0847C36.4021 48.0847 40.4656 46.3069 43.3439 43.3439C46.2222 40.4656 48.0847 36.4021 48.0847 32C48.0847 27.5979 46.3069 23.5344 43.3439 20.6561ZM40.2963 40.2963C38.1799 42.4127 35.2169 43.6825 32 43.6825C28.7831 43.6825 25.8201 42.4127 23.7037 40.2963C21.5873 38.1799 20.3175 35.2169 20.3175 32C20.3175 28.7831 21.5873 25.8201 23.7037 23.7037C25.8201 21.5873 28.7831 20.3175 32 20.3175C35.2169 20.3175 38.1799 21.5873 40.2963 23.7037C42.4127 25.8201 43.6825 28.7831 43.6825 32C43.6825 35.2169 42.4127 38.1799 40.2963 40.2963Z" fill="#EDF2F4"/>
<path d="M61.7989 29.799H55.2804C54.0952 29.799 53.0793 30.8148 53.0793 32C53.0793 33.1852 54.0952 34.2011 55.2804 34.2011H61.7989C62.9841 34.2011 64 33.1852 64 32C64 30.8148 62.9841 29.799 61.7989 29.799Z" fill="#EDF2F4"/>
<path d="M32 53.0793C30.8148 53.0793 29.799 54.0952 29.799 55.2804V61.7989C29.799 62.9841 30.8148 64 32 64C33.1852 64 34.2011 62.9841 34.2011 61.7989V55.2804C34.2011 54.0952 33.1852 53.0793 32 53.0793Z" fill="#EDF2F4"/>
<path d="M54.6032 51.5556L49.9471 46.8995C49.1852 46.0529 47.746 46.0529 46.8995 46.8995C46.0529 47.746 46.0529 49.1005 46.8995 49.9471L51.5556 54.6032C52.4021 55.4497 53.7566 55.4497 54.6032 54.6032C55.4497 53.7566 55.4497 52.4021 54.6032 51.5556Z" fill="#EDF2F4"/>
<path d="M32 0C30.8148 0 29.799 1.01587 29.799 2.20106V8.71957C29.799 9.90476 30.8148 10.9206 32 10.9206C33.1852 10.9206 34.2011 9.90476 34.2011 8.71957V2.20106C34.2011 1.01587 33.1852 0 32 0Z" fill="#EDF2F4"/>
<path d="M54.6878 9.39682C53.8413 8.55026 52.4868 8.55026 51.6402 9.39682L46.9841 14.0529C46.1376 14.8995 46.1376 16.254 46.9841 17.1005C47.746 17.9471 49.1852 17.9471 50.0317 17.1005L54.6878 12.4444C55.5344 11.5979 55.5344 10.2434 54.6878 9.39682Z" fill="#EDF2F4"/>
<path d="M8.71957 29.799H2.20106C1.01587 29.799 0 30.8148 0 32C0 33.1852 0.931217 34.2011 2.20106 34.2011H8.71957C9.90476 34.2011 10.9206 33.1852 10.9206 32C10.9206 30.8148 9.90476 29.799 8.71957 29.799Z" fill="#EDF2F4"/>
<path d="M17.0159 46.8995C16.254 46.0529 14.8148 46.0529 13.9683 46.8995L9.31217 51.5556C8.46561 52.4021 8.46561 53.7566 9.31217 54.6032C10.1587 55.4497 11.5132 55.4497 12.3598 54.6032L17.0159 49.9471C17.8624 49.1005 17.8624 47.746 17.0159 46.8995Z" fill="#EDF2F4"/>
<path d="M17.0159 14.0529L12.3598 9.39682C11.5132 8.55026 10.1587 8.55026 9.31217 9.39682C8.46561 10.2434 8.46561 11.5979 9.31217 12.4444L13.9683 17.1005C14.8148 17.9471 16.1693 17.9471 17.0159 17.1005C17.8624 16.254 17.8624 14.8995 17.0159 14.0529Z" fill="#EDF2F4"/>
</svg>
