<svg width="64" height="64" viewBox="0 0 64 64" fill="none" xmlns="http://www.w3.org/2000/svg">
<path fill-rule="evenodd" clip-rule="evenodd" d="M59.6364 7.27274H4.36364C1.95367 7.27274 0 9.2264 0 11.6364V52.3636C0 54.7736 1.95367 56.7273 4.36364 56.7273H59.6364C62.0463 56.7273 64 54.7736 64 52.3636V11.6364C64 9.2264 62.0463 7.27274 59.6364 7.27274ZM59.6364 49.28L48.0873 37.7309C47.2276 36.9299 45.888 36.9535 45.0571 37.7844C44.2262 38.6153 44.2026 39.9549 45.0036 40.8146L56.5527 52.3636H7.44727L18.9964 40.8146C19.7974 39.9549 19.7738 38.6153 18.9429 37.7844C18.112 36.9535 16.7724 36.9299 15.9127 37.7309L4.36364 49.28V21.28L30.5455 41.0182C31.3212 41.6 32.3879 41.6 33.1636 41.0182L59.6073 21.2655L59.6364 49.28ZM59.6364 11.6364V15.8255L31.8982 36.5527L4.36364 15.8255V11.6364H59.6364Z" fill="#EDF2F4"/>
</svg>
