<svg width="48" height="48" viewBox="0 0 48 48" fill="none" xmlns="http://www.w3.org/2000/svg">
<g clip-path="url(#clip0)">
<path d="M39.7189 20.3053C39.4651 19.6794 38.8569 19.2696 38.1811 19.2696H31.0292L36.9465 2.20314C37.1996 1.47341 36.9155 0.66557 36.2616 0.254459C35.6076 -0.156874 34.7566 -0.0621722 34.2087 0.482362L8.64905 25.8836C8.17244 26.3574 8.0284 27.0718 8.28485 27.6934C8.54085 28.3149 9.1469 28.7203 9.8191 28.7203H16.8996L10.457 45.7535C10.1818 46.4806 10.4486 47.3012 11.0985 47.7278C11.3768 47.9106 11.6932 48 12.0085 48C12.4287 48 12.846 47.8407 13.1649 47.5311L39.337 22.1197C39.8218 21.6491 39.9729 20.9315 39.7189 20.3053ZM16.1958 39.9628L20.8536 27.6478C21.0463 27.1378 20.9769 26.5658 20.6669 26.1173C20.3571 25.669 19.8466 25.4013 19.3014 25.4013H13.843L31.4609 7.89254L27.1296 20.3856C26.9537 20.893 27.034 21.4541 27.3453 21.8916C27.6566 22.3292 28.1605 22.5888 28.6972 22.5888H34.0895L16.1958 39.9628Z" fill="#EE6353"/>
</g>
<defs>
<clipPath id="clip0">
<path d="M0 0H48V48H0V0Z" fill="white"/>
</clipPath>
</defs>
</svg>
