<svg width="48" height="48" viewBox="0 0 48 48" fill="none" xmlns="http://www.w3.org/2000/svg">
<path d="M40.8752 24H40.875H39.4649C40.3497 22.824 40.875 21.3629 40.875 19.7812V16.9688C40.875 13.0917 37.7208 9.9375 33.8438 9.9375H25.4062C24.6296 9.9375 24 10.5671 24 11.3438C24 13.6391 25.1059 15.6808 26.8125 16.9649V18.375H19.7774C20.6622 17.199 21.1875 15.7379 21.1875 14.1562V11.3399C22.8941 10.0558 24 8.01412 24 5.71875C24 4.94212 23.3704 4.3125 22.5938 4.3125H14.1562C10.2792 4.3125 7.125 7.46672 7.125 11.3438V14.1562C7.125 15.7379 7.65028 17.199 8.53509 18.375H7.125C3.23794 18.375 0 21.5188 0 25.4062V42.2812C0 43.0579 0.629625 43.6875 1.40625 43.6875H21.1875C21.9641 43.6875 22.5938 43.0579 22.5938 42.2812V32.4375H25.4062V42.2812C25.4062 43.0579 26.0359 43.6875 26.8125 43.6875H46.5938C47.3704 43.6875 48 43.0579 48 42.2812V31.0312C48 27.1443 44.7625 24.0001 40.8752 24ZM33.8438 12.75C35.6772 12.75 37.2412 13.9255 37.8216 15.5625H31.0312C29.1978 15.5625 27.6338 14.387 27.0534 12.75H33.8438ZM38.0625 18.375V19.7812C38.0625 22.1075 36.17 24 33.8438 24C31.5175 24 29.625 22.1075 29.625 19.7812V18.2335C30.0795 18.3262 30.5497 18.375 31.0312 18.375H38.0625V18.375ZM14.1562 7.10625H20.9466C20.3662 8.74322 18.8022 9.9375 16.9688 9.9375H10.1784C10.7588 8.30053 12.3228 7.10625 14.1562 7.10625ZM9.9375 12.75H16.9688C17.4503 12.75 17.9205 12.7012 18.375 12.6085V14.1562C18.375 16.4825 16.4825 18.375 14.1562 18.375C11.83 18.375 9.9375 16.4825 9.9375 14.1562V12.75ZM21.1875 24C20.4109 24 19.7812 24.6296 19.7812 25.4062V31.0312V40.875H8.53125V28.2188C8.53125 27.4421 7.90163 26.8125 7.125 26.8125C6.34837 26.8125 5.71875 27.4421 5.71875 28.2188V40.875H2.8125V25.4062C2.8125 23.1194 4.78734 21.1875 7.125 21.1875H26.954C27.1657 22.2261 27.6071 23.182 28.2225 24H21.1875ZM45.1875 40.875H42.2812V33.8438C42.2812 33.0671 41.6516 32.4375 40.875 32.4375C40.0984 32.4375 39.4688 33.0671 39.4688 33.8438V40.875H28.2188V31.0312C28.2188 30.2546 27.5891 29.625 26.8125 29.625H22.5938V26.8125H40.875C43.2127 26.8125 45.1875 28.7444 45.1875 31.0312V40.875Z" fill="#EE6353"/>
</svg>
