<svg width="48" height="48" viewBox="0 0 48 48" fill="none" xmlns="http://www.w3.org/2000/svg">
<g clip-path="url(#clip0)">
<path d="M37.7041 2.71771C36.1447 0.965154 33.9831 0 31.6174 0C28.9768 0 26.6879 1.24856 24.9981 3.61059C24.8714 3.78768 24.7529 3.96477 24.6418 4.14009C24.5308 3.96468 24.4123 3.78768 24.2855 3.61059C22.5956 1.24856 20.3067 0 17.6661 0C15.3004 0 13.1388 0.965154 11.5794 2.71762C10.0997 4.38074 9.2846 6.60411 9.2846 8.97814C9.2846 11.558 10.2858 13.9386 12.435 16.4702C14.3102 18.679 17.0001 20.9493 20.1149 23.5783C21.2658 24.5498 22.4561 25.5543 23.7209 26.6505C23.985 26.8795 24.3134 26.994 24.6417 26.994C24.9699 26.994 25.2982 26.8795 25.5625 26.6505C26.8271 25.5546 28.0171 24.5501 29.1681 23.5787C31.1684 21.8903 32.896 20.4322 34.3951 19.0179C37.3057 16.2718 39.9989 13.1549 39.9989 8.97823C39.9989 6.60411 39.1839 4.38084 37.7041 2.71771ZM32.4655 16.9726C31.023 18.3335 29.323 19.7684 27.3545 21.4298C26.4788 22.1688 25.5807 22.9269 24.6418 23.732C23.7027 22.927 22.8043 22.1687 21.9285 21.4295C15.7974 16.2546 12.0965 13.1311 12.0965 8.97823C12.0963 5.4629 14.4907 2.81203 17.666 2.81203C19.3624 2.81203 20.8051 3.61059 21.954 5.18549C22.897 6.47793 23.2841 7.8178 23.2867 7.8268C23.4554 8.43589 24.0097 8.85758 24.6417 8.85758C25.2736 8.85758 25.8279 8.43589 25.9966 7.8268C26.0105 7.77664 27.4338 2.81203 31.6174 2.81203C34.7926 2.81203 37.1871 5.46299 37.1871 8.97823C37.1871 11.5253 35.8632 13.7667 32.4655 16.9726Z" fill="#EE6353"/>
<path d="M43.7768 28.3169C42.6105 28.3169 41.4854 28.8065 40.6901 29.6602L36.5579 34.0962C36.0238 32.3791 34.42 31.1288 32.5294 31.1288H26.0344C25.1251 31.1288 24.2483 30.7979 23.5656 30.1972C19.8941 26.9662 14.3754 26.9378 10.669 30.1078C9.90466 29.0257 8.64523 28.3169 7.22248 28.3169H1.4113C0.634869 28.3169 0.00533867 28.9464 0.00533867 29.7229V46.5941C0.00533867 47.3706 0.634775 48.0001 1.4113 48.0001H7.22248C8.4851 48.0001 9.6191 47.4416 10.3927 46.5596L11.2253 46.7936C14.0732 47.5942 17.0172 48 19.9755 48H32.5293C35.6105 48 38.5538 46.5283 40.4025 44.0634L47.1524 35.0637C47.1525 35.0635 47.1526 35.0633 47.1528 35.0631C47.7036 34.3287 47.9946 33.4543 47.9946 32.5346C47.9946 30.2089 46.1025 28.3169 43.7768 28.3169ZM8.62845 43.7821C8.62845 44.5573 7.99779 45.1881 7.22248 45.1881H2.81718V31.1287H7.22248C7.9977 31.1287 8.62845 31.7593 8.62845 32.5347V43.7821ZM44.9031 33.3762C44.9031 33.3763 44.903 33.3763 44.9029 33.3764L38.1531 42.3763C36.8325 44.137 34.7302 45.1882 32.5293 45.1882H19.9757C17.2747 45.1882 14.5867 44.8176 11.9865 44.0867L11.4366 43.9321C11.4384 43.8822 11.4405 43.8324 11.4405 43.7822V33.1702L12.4203 32.308C15.0677 29.9783 19.0606 29.9781 21.7083 32.308C22.9047 33.3607 24.4409 33.9404 26.0346 33.9404H32.5296C33.3048 33.9404 33.9356 34.5712 33.9356 35.3464C33.9356 36.1216 33.3049 36.7524 32.5296 36.7524H22.5373C21.7608 36.7524 21.1313 37.3818 21.1313 38.1583C21.1313 38.9349 21.7607 39.5643 22.5373 39.5643H33.4717C34.638 39.5643 35.7629 39.0748 36.558 38.2213L42.7477 31.5767C43.0168 31.2878 43.3823 31.1287 43.7768 31.1287C44.5521 31.1287 45.1828 31.7593 45.1828 32.5347C45.1828 32.8412 45.0861 33.1322 44.9031 33.3762Z" fill="#EE6353"/>
</g>
<defs>
<clipPath id="clip0">
<path d="M0 0H48V48H0V0Z" fill="white"/>
</clipPath>
</defs>
</svg>
