<svg width="64" height="64" viewBox="0 0 64 64" fill="none" xmlns="http://www.w3.org/2000/svg">
<g clip-path="url(#clip0)">
<path d="M62.4871 36.4071C61.8328 36.2435 61.1785 36.4071 60.6059 36.8161C58.4794 38.6154 56.0257 40.0876 53.3267 41.0691C50.7912 42.0506 48.0104 42.5413 45.066 42.5413C38.441 42.5413 32.3886 39.8423 28.0538 35.5074C23.7189 31.1726 21.0199 25.1202 21.0199 18.4952C21.0199 15.7144 21.5106 13.0154 22.3285 10.5617C23.2282 7.94441 24.5368 5.57252 26.2544 3.52778C26.9905 2.6281 26.8269 1.31947 25.9272 0.583363C25.3547 0.174416 24.7004 0.0108377 24.0461 0.174416C17.094 2.05557 11.0416 6.22683 6.70673 11.7885C2.53547 17.2684 0 24.0569 0 31.4998C0 40.4148 3.59873 48.5119 9.48757 54.4008C15.3764 60.2896 23.4736 63.8883 32.3886 63.8883C39.9132 63.8883 46.8653 61.2711 52.427 56.9362C58.0705 52.5196 62.1599 46.2218 63.8775 39.0244C64.2865 37.7975 63.6322 36.6525 62.4871 36.4071ZM49.9733 53.5011C45.2295 57.2634 39.1771 59.5535 32.5522 59.5535C24.7822 59.5535 17.7483 56.3637 12.6774 51.2928C7.60641 46.2218 4.41663 39.188 4.41663 31.418C4.41663 24.9566 6.54315 19.0678 10.2237 14.324C12.7591 11.0524 15.9489 8.35336 19.6295 6.4722C19.2205 7.37188 18.8116 8.27157 18.4844 9.25304C17.4211 12.1975 16.9304 15.3055 16.9304 18.577C16.9304 26.347 20.1202 33.4627 25.1911 38.5336C30.2621 43.6046 37.3778 46.7944 45.1477 46.7944C48.5829 46.7944 51.8545 46.2218 54.8807 45.0768C55.9439 44.6678 57.0072 44.2589 57.9887 43.7682C56.0257 47.5305 53.3267 50.8838 49.9733 53.5011Z" fill="black"/>
</g>
<defs>
<clipPath id="clip0">
<path d="M0 0H64V64H0V0Z" fill="white"/>
</clipPath>
</defs>
</svg>
