<svg width="64" height="64" viewBox="0 0 64 64" fill="none" xmlns="http://www.w3.org/2000/svg">
<g clip-path="url(#clip0)">
<path d="M59.7093 15.9372C56.8477 11.0348 52.9661 7.15316 48.0635 4.29169C43.16 1.43037 37.8072 0 32.001 0C26.1953 0 20.8408 1.43037 15.9382 4.29169C11.0353 7.15272 7.15374 11.0343 4.29213 15.9372C1.43037 20.8404 0 26.1948 0 32.0001C0 37.8056 1.43081 43.1592 4.29169 48.0626C7.15316 52.9651 11.0348 56.8467 15.9376 59.7085C20.8408 62.5696 26.1948 64.0001 32.0004 64.0001C37.8059 64.0001 43.1605 62.5696 48.0634 59.7085C52.966 56.8477 56.8474 52.9651 59.7088 48.0626C62.5696 43.1596 63.9999 37.8053 63.9999 32.0001C64 26.1942 62.5696 20.8397 59.7093 15.9372ZM32.0005 4.66676C38.8891 4.66676 44.9032 6.94446 50.0419 11.4997L49.521 12.2284C49.3128 12.5206 48.7919 13.0825 47.9589 13.9162C47.1257 14.7492 46.2159 15.5414 45.2299 16.2913C44.2431 17.0414 42.9036 17.8954 41.2085 18.8538C39.514 19.8122 37.7086 20.653 35.7916 21.3751C32.5974 15.4857 29.1811 10.1801 25.542 5.4582C27.7368 4.93048 29.8895 4.66676 32.0005 4.66676ZM10.5842 15.0407C13.2507 11.6803 16.5003 9.09651 20.334 7.29122C23.7783 11.8745 27.1669 17.1249 30.5005 23.0413C22.0561 25.2636 13.6397 26.3748 5.25067 26.3743C6.14004 22.1801 7.91774 18.4019 10.5842 15.0407ZM6.50022 41.855C5.27782 38.7301 4.66676 35.4449 4.66676 32.0001C4.66676 31.611 4.68106 31.3193 4.7085 31.125C14.7646 31.125 24.1121 29.8337 32.7509 27.2498C33.64 28.9719 34.3761 30.5137 34.9595 31.8751C34.8469 31.9306 34.6677 31.9928 34.4176 32.0624C34.1667 32.1319 33.9866 32.18 33.8745 32.2082L32.3333 32.7498C31.2772 33.1389 29.8949 33.8057 28.1872 34.7496C26.4791 35.695 24.6667 36.8193 22.7499 38.1252C20.8331 39.4312 18.8538 41.1604 16.8124 43.3139C14.7707 45.4665 13.0555 47.7784 11.6665 50.2504C9.44429 47.7784 7.72233 44.9791 6.50022 41.855ZM32.0005 59.3338C25.5003 59.3338 19.6948 57.2502 14.5835 53.0839L15.2085 53.5424C16.1806 51.4029 17.611 49.3472 19.5004 47.3754C21.3894 45.4036 23.2087 43.8125 24.9587 42.6039C26.7087 41.3963 28.6113 40.2576 30.6672 39.1868C32.7226 38.1181 34.1247 37.4368 34.8754 37.1461C35.6255 36.8545 36.2229 36.6248 36.6673 36.4578L36.7502 36.416H36.8341C39.5554 43.5548 41.5008 50.472 42.6671 57.1665C39.2226 58.6116 35.6676 59.3334 32.0005 59.3338ZM55.0017 46.7711C52.946 49.952 50.376 52.5845 47.2935 54.6671C46.1537 48.2783 44.3769 41.7637 41.9595 35.1253C47.4874 34.2632 53.1678 34.6667 59.0012 36.3328C58.3899 40.1106 57.0564 43.5907 55.0017 46.7711ZM58.9173 31.6251C58.6396 31.57 58.292 31.5069 57.8754 31.4379C57.4589 31.3689 56.9515 31.2851 56.3541 31.1879C55.7577 31.0907 55.09 31.0007 54.3545 30.9172C53.6182 30.8339 52.8336 30.7577 51.9996 30.6882C51.1665 30.6184 50.2774 30.5634 49.3335 30.5214C48.388 30.4799 47.4301 30.4589 46.4577 30.4589C45.4864 30.4589 44.4646 30.4871 43.3957 30.5423C42.3266 30.597 41.2921 30.6954 40.2923 30.834C40.2084 30.6949 40.1045 30.4656 39.9796 30.146C39.8548 29.8269 39.7637 29.5834 39.7099 29.4168C39.1814 28.2501 38.5701 26.9305 37.8749 25.4587C39.7917 24.6804 41.6186 23.7849 43.3558 22.7708C45.0913 21.7566 46.4792 20.8544 47.5215 20.0628C48.5634 19.2704 49.5494 18.43 50.4797 17.5414C51.4107 16.6526 52.014 16.0348 52.2928 15.6875C52.5709 15.3396 52.8346 14.9995 53.0843 14.6666L53.1262 14.6246C57.1816 19.5691 59.252 25.2633 59.3343 31.7083L58.9173 31.6251Z" fill="#EE6353"/>
</g>
<defs>
<clipPath id="clip0">
<path d="M0 0H64V64H0V0Z" fill="white"/>
</clipPath>
</defs>
</svg>
